<svg xmlns="http://www.w3.org/2000/svg" viewBox="-134.8 -134.8 269.8 269.8" width="512" height="512"><path d="M-10.03,-82.64 Q0.00,-102.49 10.03,-82.64 L40.54,-22.22 Q46.81,-9.80 33.59,-14.12 L7.93,-22.51 Q0.00,-25.10 -7.93,-22.51 L-33.59,-14.12 Q-46.81,-9.80 -40.54,-22.22 Z" fill="#111111" /><path d="M-63.34,22.94 Q-53.32,3.08 -43.29,22.94 L-12.77,83.36 Q-6.51,95.77 -19.72,91.45 L-45.39,83.07 Q-53.32,80.48 -61.25,83.07 L-86.91,91.45 Q-100.12,95.77 -93.86,83.36 Z" fill="#111111" /><path d="M43.29,22.94 Q53.32,3.08 63.34,22.94 L93.86,83.36 Q100.12,95.77 86.91,91.45 L61.25,83.07 Q53.32,80.48 45.39,83.07 L19.72,91.45 Q6.51,95.77 12.77,83.36 Z" fill="#111111" /><path d="M10.03,66.62 Q0.00,86.48 -10.03,66.62 L-40.54,6.20 Q-46.81,-6.21 -33.59,-1.90 L-7.93,6.49 Q-0.00,9.08 7.93,6.49 L33.59,-1.90 Q46.81,-6.21 40.54,6.20 Z" fill="#111111" /></svg>
